<svg width="121" height="121" viewBox="0 0 121 121" fill="none" xmlns="http://www.w3.org/2000/svg">
<g filter="url(#filter0_i)">
<g clip-path="url(#clip0)">
<path d="M29.5497 38.5739C30.1857 37.948 30.8532 37.3563 31.5501 36.7996C32.3828 36.0897 32.4982 34.8453 31.8095 33.9951C31.1209 33.1448 29.8801 32.9981 29.0133 33.6655C28.2055 34.3099 27.4329 34.9967 26.698 35.7223C26.1737 36.2282 25.9632 36.9787 26.1478 37.6831C26.3324 38.3884 26.8826 38.9395 27.5879 39.1241C28.2932 39.3088 29.0428 39.0983 29.5497 38.5739Z" fill="#084215" fill-opacity="0.13"/>
<path d="M13.0005 11.9382C16.6516 10.4972 20.6553 10.211 24.4734 11.1166C23.3065 11.2136 22.1618 11.4914 21.0799 11.9401C14.3243 14.7695 12.3358 23.3945 12.2546 23.7638C12.0146 24.8485 12.6968 25.9239 13.7815 26.1676C13.9264 26.1999 14.0741 26.2166 14.2228 26.2175C15.1662 26.2184 15.9841 25.5648 16.1909 24.6444C16.2057 24.5761 17.8249 17.6654 22.6446 15.6567C24.7827 14.8794 27.1358 14.9412 29.2313 15.8284C24.4356 18.1815 17.631 23.6604 16.2518 36.0795C16.1291 37.1863 16.9276 38.1833 18.0344 38.3052C19.1413 38.428 20.1383 37.6295 20.2611 36.5226C21.6246 24.2576 28.8251 20.0795 32.5122 18.7298C33.0125 23.2653 34.8228 26.8895 37.3661 31.9733C38.8182 34.8794 40.6248 38.4935 42.6197 43.1453C47.4598 54.4391 46.9253 71.4287 46.6124 76.7848H14.5089C13.3301 66.3828 15.8272 55.8958 21.5673 47.1407C21.8175 46.7372 22.088 46.3495 22.3566 45.9627L22.6751 45.5011C23.0804 44.9048 23.1376 44.1386 22.8237 43.4887C22.5108 42.8397 21.8757 42.4067 21.1565 42.3532C20.4374 42.3006 19.745 42.6348 19.3389 43.2302L19.037 43.6696C18.7342 44.109 18.4314 44.5512 18.172 44.9685C9.51747 58.2092 7.79211 74.8139 13.5378 89.551C13.5553 89.599 13.5719 89.6452 13.5941 89.6914C16.7974 97.7966 22.0843 104.911 28.9202 110.316C28.9968 110.387 29.079 110.45 29.1667 110.507C47.0453 124.498 72.1587 124.498 90.0373 110.507C90.124 110.45 90.2062 110.387 90.2828 110.316C97.1187 104.911 102.407 97.7966 105.61 89.6914C105.632 89.6452 105.648 89.599 105.666 89.551C109.785 78.9911 110.113 67.329 106.594 56.554C106.246 55.4961 105.106 54.921 104.048 55.269C102.99 55.617 102.414 56.7562 102.762 57.815C104.238 62.3191 104.988 67.0299 104.98 71.7693C104.978 73.4458 104.882 75.1204 104.694 76.7848H90.6539C90.785 76.0703 90.8524 75.3447 90.8561 74.6173C90.8561 67.9346 85.4381 62.5175 78.7555 62.5175C72.0728 62.5175 66.6558 67.9346 66.6558 74.6173C66.6595 75.3447 66.7268 76.0703 66.8579 76.7848H57.7548C60.3257 69.6886 64.2657 60.9159 69.584 55.0179C72.9719 51.2708 75.8494 48.4414 78.1628 46.1667C82.2228 42.1778 85.116 39.3317 87.0564 35.1914C90.1139 37.6664 95.5706 43.9484 92.9046 55.9918C92.6987 57.0636 93.3828 58.1058 94.449 58.3412C95.5152 58.5775 96.5759 57.9221 96.8409 56.8623C99.5457 44.6703 94.881 37.287 91.1035 33.5057C93.3708 33.3451 95.6149 34.0467 97.3874 35.4702C101.302 38.9311 100.598 45.9932 100.59 46.0633C100.473 47.1674 101.269 48.1589 102.372 48.2817C102.448 48.2918 102.523 48.2964 102.599 48.2964C103.625 48.2937 104.486 47.521 104.599 46.5009C104.641 46.128 105.551 37.3211 100.077 32.4617C99.2171 31.7001 98.2441 31.0751 97.1944 30.608C101.073 31.0059 104.741 32.5623 107.723 35.0751C108.557 35.7527 109.776 35.6585 110.495 34.8591C111.213 34.0606 111.179 32.8374 110.418 32.0804C105.704 27.9087 99.4082 25.9941 93.1704 26.8369C96.1901 24.8549 99.9205 24.2789 103.397 25.2556C104.452 25.6137 105.597 25.0488 105.955 23.9945C106.313 22.9394 105.748 21.7947 104.694 21.4365C99.5023 19.9595 93.9173 21.0543 89.6662 24.3804C89.2572 20.5604 87.3518 17.058 84.3664 14.6403C83.8263 14.1242 83.0463 13.9488 82.3373 14.1833C81.6292 14.4187 81.1077 15.0262 80.984 15.7619C80.8593 16.4986 81.152 17.2426 81.7446 17.6977C84.1365 19.5837 85.5812 22.4233 85.6994 25.4679C84.5852 23.7268 83.0518 22.295 81.2387 21.3036C74.3659 17.5362 65.4178 21.0266 65.0403 21.1799C64.0349 21.611 63.5558 22.7649 63.9611 23.7813C64.3664 24.7977 65.5092 25.3054 66.5348 24.9251C66.6096 24.8946 74.0733 21.9765 79.3001 24.8401C80.6719 25.6184 81.8009 26.7621 82.5616 28.1432C73.5166 25.2417 65.1492 31.4287 61.572 35.7804C61.1141 36.337 60.9876 37.0959 61.2406 37.7707C61.4944 38.4455 62.088 38.9339 62.7988 39.052C63.5097 39.1702 64.2297 38.9006 64.6876 38.344C65.0689 37.8796 73.7622 27.5607 83.6279 32.9952C82.0151 36.7349 79.5078 39.2053 75.3435 43.2985C72.9941 45.6101 70.0677 48.4857 66.5976 52.3214C60.4928 59.0954 56.1614 69.1301 53.4889 76.7931H50.6659C51.013 70.8887 51.4949 53.6018 46.3317 41.5648C44.2934 36.8051 42.4563 33.131 40.9802 30.1787C38.364 24.9555 36.8094 21.8095 36.4743 17.7476C47.5161 15.8118 52.455 28.3758 52.6682 28.938C53.0744 29.9572 54.22 30.4649 55.2475 30.0809C56.275 29.6968 56.8076 28.5623 56.4457 27.5265C54.4656 22.247 48.5427 13.67 39.0213 13.5085C40.1946 12.446 41.6384 11.7296 43.1939 11.4397C49.0329 10.4316 55.2013 15.6004 55.2641 15.6502C56.1125 16.3398 57.356 16.2272 58.0677 15.3963C58.7785 14.5655 58.6982 13.3193 57.8858 12.5872C57.5766 12.3232 50.2366 6.11777 42.5182 7.46464C40.4827 7.81636 38.568 8.67489 36.9507 9.95992C38.0465 7.11939 40.3313 4.90198 43.2022 3.89113C44.2371 3.47849 44.7411 2.30424 44.3276 1.26939C43.914 0.235465 42.7407 -0.268574 41.7058 0.144073C38.0982 1.46695 35.1625 4.16531 33.5406 7.64835C30.5939 3.12584 25.6633 0.284392 20.2731 0.0009853C19.1588 -0.00178415 18.2542 0.899209 18.2514 2.01253C18.2486 3.12677 19.1487 4.03145 20.2629 4.03422C23.8715 4.23362 27.217 5.98761 29.4326 8.84198C23.7995 6.02915 17.2211 5.80851 11.4118 8.23732C10.7397 8.51426 10.268 9.13185 10.1784 9.85375C10.0889 10.5757 10.3954 11.2892 10.9797 11.7222C11.5641 12.1552 12.3368 12.2401 13.0005 11.9438V11.9382ZM97.3089 96.8772H21.8867C20.6008 94.9625 19.4626 92.9528 18.4822 90.8656H100.711C99.7313 92.9528 98.5939 94.9625 97.3089 96.8772ZM37.031 110.955H82.1656C68.1873 118.969 51.0075 118.969 37.0292 110.955H37.031ZM88.0765 106.922H31.1201C28.8796 105.116 26.8145 103.104 24.9516 100.91H94.2441C92.3811 103.104 90.3151 105.116 88.0747 106.922H88.0765ZM102.375 86.8324H16.8223C16.1217 84.8698 15.5586 82.8601 15.1385 80.8181H104.057C103.637 82.8601 103.074 84.8698 102.372 86.8324H102.375ZM70.689 74.6173C70.689 70.1621 74.3004 66.5508 78.7555 66.5508C83.2106 66.5508 86.8219 70.1621 86.8219 74.6173C86.8099 75.3512 86.7001 76.0805 86.4933 76.7848H71.0176C70.8118 76.0805 70.701 75.3512 70.689 74.6173Z" fill="#084215" fill-opacity="0.13"/>
</g>
</g>
<defs>
<filter id="filter0_i" x="0" y="0" width="121" height="125" filterUnits="userSpaceOnUse" color-interpolation-filters="sRGB">
<feFlood flood-opacity="0" result="BackgroundImageFix"/>
<feBlend mode="normal" in="SourceGraphic" in2="BackgroundImageFix" result="shape"/>
<feColorMatrix in="SourceAlpha" type="matrix" values="0 0 0 0 0 0 0 0 0 0 0 0 0 0 0 0 0 0 127 0" result="hardAlpha"/>
<feOffset dy="4"/>
<feGaussianBlur stdDeviation="2"/>
<feComposite in2="hardAlpha" operator="arithmetic" k2="-1" k3="1"/>
<feColorMatrix type="matrix" values="0 0 0 0 0 0 0 0 0 0 0 0 0 0 0 0 0 0 0.25 0"/>
<feBlend mode="normal" in2="shape" result="effect1_innerShadow"/>
</filter>
<clipPath id="clip0">
<rect width="121" height="121" fill="white"/>
</clipPath>
</defs>
</svg>
