<svg width="21" height="25" viewBox="0 0 21 25" fill="none" xmlns="http://www.w3.org/2000/svg">
<path d="M0.685854 2.46651C1.4402 2.16878 2.26741 2.10965 3.05629 2.29676C2.8152 2.31679 2.57869 2.3742 2.35515 2.4669C0.959366 3.05149 0.548526 4.83351 0.531742 4.90981C0.482151 5.13392 0.623103 5.35612 0.847215 5.40648C0.87716 5.41315 0.907677 5.41658 0.938385 5.41678C1.13331 5.41697 1.3023 5.28193 1.34503 5.09177C1.34808 5.07765 1.68263 3.64982 2.67844 3.23479C3.12018 3.07419 3.60636 3.08697 4.03933 3.27026C3.04847 3.75644 1.64257 4.88844 1.35762 7.45438C1.33225 7.68307 1.49723 7.88906 1.72592 7.91424C1.95461 7.9396 2.1606 7.77462 2.18597 7.54593C2.46768 5.01185 3.9554 4.14859 4.71719 3.86974C4.82057 4.80681 5.1946 5.55563 5.72007 6.606C6.02009 7.20642 6.39335 7.95315 6.80553 8.91425C7.80554 11.2477 7.69511 14.7579 7.63045 15.8646H0.997512C0.753946 13.7154 1.26988 11.5487 2.45586 9.73974C2.50755 9.65639 2.56343 9.57629 2.61894 9.49637L2.68474 9.401C2.76847 9.27779 2.7803 9.11948 2.71545 8.9852C2.65079 8.85112 2.51956 8.76166 2.37098 8.7506C2.2224 8.73973 2.07935 8.80877 1.99543 8.9318L1.93306 9.02259C1.8705 9.11338 1.80794 9.20474 1.75434 9.29095C-0.033782 12.0266 -0.390262 15.4574 0.796861 18.5022C0.800485 18.5121 0.803918 18.5217 0.808496 18.5312C1.47034 20.2058 2.56267 21.6758 3.97505 22.7926C3.99088 22.8071 4.00785 22.8202 4.02597 22.8321C7.7199 25.7226 12.9086 25.7226 16.6025 22.8321C16.6205 22.8202 16.6374 22.8071 16.6533 22.7926C18.0657 21.6758 19.1582 20.2058 19.82 18.5312C19.8246 18.5217 19.8278 18.5121 19.8317 18.5022C20.6827 16.3204 20.7504 13.9109 20.0233 11.6847C19.9514 11.4661 19.7159 11.3472 19.4973 11.4191C19.2787 11.4911 19.1597 11.7264 19.2316 11.9452C19.5366 12.8758 19.6915 13.8491 19.6899 14.8283C19.6894 15.1747 19.6697 15.5207 19.6308 15.8646H16.7299C16.757 15.7169 16.771 15.567 16.7717 15.4167C16.7717 14.036 15.6523 12.9168 14.2716 12.9168C12.8909 12.9168 11.7716 14.036 11.7716 15.4167C11.7724 15.567 11.7863 15.7169 11.8134 15.8646H9.9326C10.4638 14.3984 11.2778 12.5859 12.3767 11.3673C13.0766 10.5931 13.6712 10.0085 14.1491 9.53852C14.988 8.71436 15.5857 8.12633 15.9867 7.27089C16.6184 7.78225 17.7458 9.08019 17.195 11.5685C17.1524 11.7899 17.2938 12.0053 17.5141 12.0539C17.7344 12.1027 17.9535 11.9673 18.0082 11.7484C18.5671 9.22934 17.6033 7.70386 16.8228 6.92261C17.2913 6.88943 17.7549 7.03438 18.1212 7.32849C18.9299 8.04355 18.7845 9.50266 18.7828 9.51716C18.7586 9.74527 18.9232 9.95012 19.1511 9.97549C19.1668 9.97759 19.1822 9.97854 19.1978 9.97854C19.4099 9.97797 19.5879 9.81833 19.6112 9.60756C19.6199 9.53051 19.8078 7.71091 18.677 6.70689C18.4992 6.54954 18.2982 6.42041 18.0813 6.3239C18.8826 6.40611 19.6405 6.72768 20.2566 7.24686C20.4288 7.38686 20.6808 7.3674 20.8294 7.20223C20.9778 7.03724 20.9707 6.78452 20.8134 6.62812C19.8395 5.7662 18.5387 5.37062 17.2499 5.54476C17.8738 5.13525 18.6445 5.01624 19.3628 5.21803C19.5808 5.29204 19.8173 5.17531 19.8914 4.95749C19.9654 4.73948 19.8486 4.50297 19.6308 4.42897C18.5581 4.12379 17.4042 4.35 16.5259 5.03722C16.4414 4.24796 16.0477 3.52432 15.4309 3.02479C15.3193 2.91817 15.1581 2.88193 15.0116 2.93038C14.8653 2.97901 14.7576 3.10452 14.732 3.25653C14.7063 3.40874 14.7667 3.56247 14.8892 3.6565C15.3834 4.04617 15.6819 4.63286 15.7063 5.2619C15.4761 4.90218 15.1593 4.60635 14.7847 4.4015C13.3647 3.62312 11.5159 4.34428 11.4379 4.37594C11.2302 4.46502 11.1312 4.70343 11.2149 4.91343C11.2986 5.12343 11.5348 5.22833 11.7467 5.14975C11.7621 5.14345 13.3042 4.54055 14.3841 5.1322C14.6676 5.29299 14.9008 5.52931 15.058 5.81464C13.1892 5.21517 11.4604 6.49346 10.7213 7.39258C10.6267 7.50759 10.6005 7.66438 10.6528 7.8038C10.7053 7.94323 10.8279 8.04413 10.9748 8.06854C11.1216 8.09295 11.2704 8.03726 11.365 7.92225C11.4438 7.82631 13.2399 5.69429 15.2783 6.81714C14.9451 7.5898 14.427 8.1002 13.5666 8.94591C13.0812 9.42351 12.4766 10.0176 11.7596 10.8101C10.4983 12.2097 9.60339 14.283 9.05122 15.8663H8.46796C8.53967 14.6464 8.63924 11.0747 7.57247 8.58772C7.15133 7.60429 6.77177 6.84518 6.46679 6.23521C5.92625 5.15604 5.60505 4.50602 5.53582 3.6668C7.81718 3.26683 8.8376 5.86271 8.88166 5.97887C8.96558 6.18944 9.20228 6.29434 9.41457 6.21499C9.62685 6.13565 9.73691 5.90124 9.66214 5.68723C9.25302 4.59643 8.02927 2.82433 6.06205 2.79095C6.30447 2.57142 6.60278 2.42341 6.92417 2.36352C8.13055 2.15524 9.40503 3.22315 9.418 3.23345C9.59329 3.37593 9.8502 3.35266 9.99726 3.181C10.1441 3.00934 10.1275 2.75185 9.95968 2.6006C9.89579 2.54605 8.37927 1.26394 6.78455 1.54222C6.36398 1.61489 5.9684 1.79227 5.63424 2.05777C5.86064 1.47089 6.3327 1.01275 6.92588 0.803892C7.13969 0.718635 7.24383 0.476022 7.15839 0.26221C7.07294 0.0485888 6.83051 -0.0555516 6.6167 0.0297062C5.87132 0.303027 5.26479 0.86054 4.92967 1.58018C4.32085 0.645774 3.30214 0.0586976 2.18845 0.000142539C1.95824 -0.00042966 1.77132 0.185726 1.77074 0.41575C1.77017 0.645965 1.95614 0.832884 2.18635 0.833456C2.93193 0.874654 3.62315 1.23705 4.0809 1.82679C2.91705 1.24563 1.55789 1.20005 0.357603 1.70186C0.218749 1.75908 0.121284 1.88668 0.102783 2.03584C0.0842819 2.18499 0.147605 2.33243 0.268339 2.42188C0.389074 2.51134 0.548717 2.52888 0.685854 2.46766V2.46651ZM18.1049 20.0159H2.52185C2.25616 19.6203 2.02099 19.2051 1.81843 18.7738H18.8078C18.6054 19.2051 18.3704 19.6203 18.1049 20.0159ZM5.65083 22.9246H14.9762C12.0881 24.5803 8.53853 24.5803 5.65045 22.9246H5.65083ZM16.1974 22.0912H4.42957C3.96666 21.7182 3.53999 21.3024 3.15509 20.8492H17.4717C17.0868 21.3024 16.66 21.7182 16.197 22.0912H16.1974ZM19.1517 17.9405H1.47549C1.33072 17.535 1.21438 17.1198 1.12759 16.6979H19.4992C19.4124 17.1198 19.2961 17.535 19.1511 17.9405H19.1517ZM12.605 15.4167C12.605 14.4962 13.3511 13.7501 14.2716 13.7501C15.1921 13.7501 15.9382 14.4962 15.9382 15.4167C15.9357 15.5684 15.913 15.719 15.8703 15.8646H12.6729C12.6303 15.719 12.6074 15.5684 12.605 15.4167Z" fill="white"/>
</svg>
